<svg width="15" height="14" viewBox="0 0 15 14" fill="none" xmlns="http://www.w3.org/2000/svg">
<path d="M11.2181 0.641113C9.7261 0.641113 9.09556 1.35306 8.05651 1.35306C6.99118 1.35306 6.17859 0.646294 4.8857 0.646294C3.62019 0.646294 2.27068 1.41892 1.41368 2.73513C0.210335 4.59121 0.414593 8.08691 2.36356 11.0649C3.0607 12.131 3.9917 13.3266 5.21281 13.3395H5.23501C6.29626 13.3395 6.61153 12.6446 8.07205 12.6365H8.09425C9.53294 12.6365 9.82156 13.3355 10.8784 13.3355H10.9006C12.1217 13.3225 13.1026 11.9978 13.7998 10.9358C14.3015 10.172 14.488 9.78869 14.8729 8.92466C12.0536 7.85453 11.6007 3.85781 14.3889 2.3255C13.5378 1.25981 12.3419 0.642593 11.2144 0.642593L11.2181 0.641113Z" fill="#ADADAD"/>
</svg>
