<svg width="17" height="18" viewBox="0 0 17 18" fill="none" xmlns="http://www.w3.org/2000/svg">
<path d="M16.4805 7.87526L16.3975 7.50292H8.73736V10.9281H13.3142C12.839 13.312 10.634 14.5669 8.8329 14.5669C7.52241 14.5669 6.14099 13.9845 5.22665 13.0484C4.74425 12.5466 4.36026 11.9493 4.09667 11.2905C3.83307 10.6317 3.69506 9.92451 3.69051 9.20931C3.69051 7.76655 4.30423 6.32339 5.19725 5.3741C6.09027 4.42481 7.43899 3.89368 8.77998 3.89368C10.3158 3.89368 11.4164 4.75522 11.828 5.14814L14.1319 2.72696C13.456 2.09954 11.5994 0.518555 8.70575 0.518555C6.4732 0.518555 4.33253 1.42203 2.76773 3.0698C1.2235 4.69232 0.424194 7.03856 0.424194 9.21552C0.424194 11.3925 1.1805 13.6215 2.67695 15.2568C4.27594 17.0009 6.54046 17.9125 8.87223 17.9125C10.9938 17.9125 13.0047 17.0343 14.438 15.4408C15.847 13.8723 16.5757 11.7019 16.5757 9.42674C16.5757 8.4689 16.4846 7.90011 16.4805 7.87526Z" fill="#ADADAD"/>
</svg>
