<svg width="63" height="85" viewBox="0 0 63 85" fill="none" xmlns="http://www.w3.org/2000/svg">
<path d="M45.2566 33.8122V17.0856C45.2566 13.3498 43.7726 9.76713 41.131 7.12557C38.4895 4.48401 34.9067 3 31.171 3C27.4353 3 23.8526 4.48401 21.211 7.12557C18.5695 9.76713 17.0854 13.3498 17.0854 17.0856V33.8122" stroke="#FFD6BE" stroke-width="5.63423" stroke-linecap="round" stroke-linejoin="round"/>
<path d="M50.8909 33.8123H11.4513C6.78379 33.8123 3 37.5961 3 42.2636V73.2519C3 77.9194 6.78379 81.7032 11.4513 81.7032H50.8909C55.5585 81.7032 59.3423 77.9194 59.3423 73.2519V42.2636C59.3423 37.5961 55.5585 33.8123 50.8909 33.8123Z" stroke="#FFD6BE" stroke-width="5.63423" stroke-linecap="round" stroke-linejoin="round"/>
</svg>
