<svg width="85" height="67" viewBox="0 0 85 67" fill="none" xmlns="http://www.w3.org/2000/svg">
<path d="M80.979 62.5665L28.9558 37.2973M33.0814 3.57349L81.1562 61.2273C81.3306 61.435 81.4411 61.6887 81.4744 61.9578C81.5078 62.2269 81.4624 62.4999 81.344 62.7438C81.2255 62.9878 81.0389 63.1921 80.8068 63.3323C80.5747 63.4725 80.3069 63.5425 80.0359 63.5338L4.99889 61.3884C4.71237 61.3758 4.43659 61.2757 4.20865 61.1016C3.98072 60.9275 3.81155 60.6878 3.72391 60.4147C3.63626 60.1417 3.63433 59.8483 3.71839 59.5741C3.80246 59.2999 3.96847 59.058 4.19411 58.8809L27.8728 38.1662C28.2181 37.9007 28.4969 37.5586 28.6872 37.1668C28.8775 36.7751 28.9741 36.3444 28.9693 35.9089L30.603 4.4945C30.5995 4.2051 30.6855 3.92169 30.8493 3.68305C31.0131 3.44442 31.2466 3.26223 31.5179 3.16141C31.7892 3.06059 32.085 3.04607 32.3649 3.11983C32.6448 3.1936 32.895 3.35204 33.0814 3.57349Z" stroke="#FFD6BE" stroke-width="5.6166" stroke-linecap="round" stroke-linejoin="round"/>
</svg>
